<?xml version="1.0" encoding="UTF-8"?>
<!DOCTYPE svg PUBLIC "-//W3C//DTD SVG 1.1//EN" "http://www.w3.org/Graphics/SVG/1.1/DTD/svg11.dtd">
<svg xmlns="http://www.w3.org/2000/svg" version="1.1" width="4501px" height="4500px" style="shape-rendering:geometricPrecision; text-rendering:geometricPrecision; image-rendering:optimizeQuality; fill-rule:evenodd; clip-rule:evenodd" xmlns:xlink="http://www.w3.org/1999/xlink">
<g><path style="opacity:1" fill="#f9f9f9" d="M 3383.5,425.5 C 3518.72,423.389 3646.38,453.222 3766.5,515C 3866.2,570.026 3947.36,645.193 4010,740.5C 4057.74,813.672 4092.74,892.672 4115,977.5C 4149.11,1133.64 4133.44,1284.64 4068,1430.5C 4035.28,1499.64 3992.45,1561.64 3939.5,1616.5C 4068.82,1828.57 4162.99,2055.57 4222,2297.5C 4243.48,2389.07 4257.82,2481.73 4265,2575.5C 4272.36,2731.65 4252.69,2884.32 4206,3033.5C 4161.75,3166.03 4096.75,3286.7 4011,3395.5C 3934.35,3490.81 3847.85,3575.98 3751.5,3651C 3620.12,3752.24 3477.12,3834.91 3322.5,3899C 3139.4,3974.53 2949.74,4026.53 2753.5,4055C 2652.34,4070.08 2550.67,4080.08 2448.5,4085C 2392.33,4087.55 2336.16,4090.05 2280,4092.5C 2247.47,4092.1 2214.97,4090.93 2182.5,4089C 2122.51,4084.91 2062.51,4080.91 2002.5,4077C 1796.47,4058.93 1595.8,4015.93 1400.5,3948C 1262.09,3899.31 1134.42,3831.64 1017.5,3745C 835.516,3604.23 710.683,3423.39 643,3202.5C 609.394,3090.2 588.728,2975.53 581,2858.5C 570.195,2707.32 575.195,2556.65 596,2406.5C 611.581,2284.26 635.748,2163.76 668.5,2045C 468.356,1916.04 358.856,1731.88 340,1492.5C 334.042,1279.26 407.542,1099.09 560.5,952C 670.57,848.81 800.904,786.477 951.5,765C 1113.03,740.841 1264.03,770.174 1404.5,853C 1459.8,885.267 1509.63,924.767 1554,971.5C 1561.68,980.673 1569.51,989.673 1577.5,998.5C 1763.32,924.127 1955.65,874.627 2154.5,850C 2338.36,825.676 2522.7,821.343 2707.5,837C 2724.92,838.677 2742.25,840.844 2759.5,843.5C 2857.94,637.605 3017.94,505.772 3239.5,448C 3286.92,435.817 3334.92,428.317 3383.5,425.5 Z"/></g>
<g><path style="opacity:1" fill="#000000" d="M 3374.5,500.5 C 3488.92,497.15 3598.25,518.983 3702.5,566C 3807.28,616.448 3891.12,690.615 3954,788.5C 4080.09,985.242 4096.42,1190.91 4003,1405.5C 3976.35,1461.85 3942.01,1512.85 3900,1558.5C 3886,1572.5 3872,1586.5 3858,1600.5C 3853.31,1608.96 3853.64,1617.29 3859,1625.5C 3982.92,1821.82 4075.92,2032.16 4138,2256.5C 4164.53,2357.03 4182.87,2459.03 4193,2562.5C 4202.87,2716.18 4184.87,2866.51 4139,3013.5C 4094.56,3147.1 4027.89,3267.77 3939,3375.5C 3846.91,3484.28 3742.41,3578.78 3625.5,3659C 3492.63,3748.6 3350.3,3820.6 3198.5,3875C 3034.11,3933.26 2865.45,3973.6 2692.5,3996C 2630.72,4004.24 2568.72,4010.24 2506.5,4014C 2441.16,4017.95 2375.83,4021.62 2310.5,4025C 2261.78,4025.84 2213.11,4024.5 2164.5,4021C 2107.18,4016.92 2049.84,4012.92 1992.5,4009C 1786.23,3989.35 1585.89,3944.01 1391.5,3873C 1284.73,3832.29 1184.73,3779.63 1091.5,3715C 905.118,3581.9 778.285,3405.4 711,3185.5C 676.749,3071.67 656.416,2955.33 650,2836.5C 641.693,2694.6 647.36,2553.27 667,2412.5C 684.321,2280.4 711.821,2150.57 749.5,2023C 748.852,2016.37 745.852,2011.04 740.5,2007C 551.733,1902.41 442.899,1742.58 414,1527.5C 397.023,1333.41 455.689,1166.41 590,1026.5C 693.643,921.095 819.143,858.261 966.5,838C 1115.73,817.029 1254.06,846.362 1381.5,926C 1436.33,959.145 1484.16,1000.64 1525,1050.5C 1533.12,1061.62 1541.62,1072.45 1550.5,1083C 1556.76,1086.1 1563.09,1086.1 1569.5,1083C 1660.97,1043.18 1754.97,1010.51 1851.5,985C 1953.34,957.375 2056.68,937.042 2161.5,924C 2343.38,899.836 2525.72,895.836 2708.5,912C 2731.18,914.78 2753.85,917.78 2776.5,921C 2792.77,923.583 2804.94,917.749 2813,903.5C 2893.14,713.469 3031.98,588.303 3229.5,528C 3277.02,513.864 3325.35,504.697 3374.5,500.5 Z"/></g>
<g><path style="opacity:1" fill="#f9f9f9" d="M 3362.5,729.5 C 3456.16,725.126 3543.83,745.626 3625.5,791C 3707.32,842.159 3766.82,912.325 3804,1001.5C 3840.09,1090.99 3845.43,1182.32 3820,1275.5C 3795.73,1355.57 3752.23,1423.07 3689.5,1478C 3670.4,1493.77 3650.74,1508.77 3630.5,1523C 3612.19,1536.79 3599.69,1554.63 3593,1576.5C 3592.33,1584.83 3592.33,1593.17 3593,1601.5C 3594.87,1609.77 3597.54,1617.77 3601,1625.5C 3643.49,1700.31 3685.32,1775.48 3726.5,1851C 3724.65,1853.94 3721.98,1855.94 3718.5,1857C 3623.15,1862.31 3527.81,1867.98 3432.5,1874C 3297.52,1885.76 3162.52,1897.09 3027.5,1908C 2905.21,1921.13 2782.88,1933.8 2660.5,1946C 2612.4,1951.51 2564.4,1957.85 2516.5,1965C 2414.02,1975.77 2311.69,1987.77 2209.5,2001C 2170.76,2006.51 2132.09,2012.51 2093.5,2019C 1933.66,2037.86 1774.33,2060.2 1615.5,2086C 1481.57,2108.1 1347.57,2129.77 1213.5,2151C 1124.36,2167.74 1035.19,2184.24 946,2200.5C 943.594,2200.3 941.594,2199.3 940,2197.5C 939.333,2193.5 939.333,2189.5 940,2185.5C 956.96,2112.96 973.293,2040.29 989,1967.5C 992.119,1922.56 972.952,1891.4 931.5,1874C 883.268,1857.38 838.268,1834.72 796.5,1806C 677.222,1712.21 623.055,1589.05 634,1436.5C 643.757,1330.82 687.257,1241.99 764.5,1170C 885.996,1058.38 1027,1023.71 1187.5,1066C 1263.75,1088.65 1328.25,1129.48 1381,1188.5C 1398.87,1209.03 1415.2,1230.7 1430,1253.5C 1437.22,1270.28 1446.22,1285.94 1457,1300.5C 1482.28,1327.78 1512.78,1335.95 1548.5,1325C 1624.38,1292.26 1701.72,1263.26 1780.5,1238C 1910.24,1198.12 2042.57,1170.12 2177.5,1154C 2346.25,1131.79 2515.59,1125.79 2685.5,1136C 2747.28,1141.21 2808.95,1147.54 2870.5,1155C 2894.44,1157.6 2916.11,1151.93 2935.5,1138C 2946.55,1127.4 2954.72,1114.9 2960,1100.5C 2971.31,1046.9 2989.65,995.896 3015,947.5C 3040.5,902.651 3073.33,863.818 3113.5,831C 3185.54,770.66 3268.54,736.827 3362.5,729.5 Z"/></g>
<g><path style="opacity:1" fill="#000000" d="M 3343.5,934.5 C 3437.93,930.644 3515.1,964.977 3575,1037.5C 3599.67,1066.84 3617.01,1100.17 3627,1137.5C 3633.95,1189.95 3628.95,1241.29 3612,1291.5C 3594.14,1339.69 3563.97,1378.19 3521.5,1407C 3499.81,1419.57 3478.14,1419.57 3456.5,1407C 3391.14,1353.34 3321.14,1306.34 3246.5,1266C 3207.85,1246.23 3168.85,1227.23 3129.5,1209C 3106.56,1196.3 3096.4,1176.8 3099,1150.5C 3112.73,1081.8 3147.9,1026.96 3204.5,986C 3246.29,956.46 3292.62,939.294 3343.5,934.5 Z"/></g>
<g><path style="opacity:1" fill="#000000" d="M 1079.5,1235.5 C 1189.5,1232.9 1273,1278.24 1330,1371.5C 1338,1385.14 1341.66,1399.81 1341,1415.5C 1339.68,1427.14 1335.34,1437.47 1328,1446.5C 1304.13,1468.7 1279.97,1490.54 1255.5,1512C 1188.28,1576.52 1127.78,1646.35 1074,1721.5C 1057.21,1739.76 1036.71,1745.93 1012.5,1740C 906.053,1703.2 846.553,1628.7 834,1516.5C 832.216,1430.47 862.716,1358.31 925.5,1300C 969.688,1261.65 1021.02,1240.15 1079.5,1235.5 Z"/></g>
<g><path style="opacity:1" fill="#f9f9f9" d="M 3804.5,2075.5 C 3820,2072.59 3830.84,2078.26 3837,2092.5C 3874.88,2193.03 3903.88,2296.03 3924,2401.5C 3932.8,2458.28 3939.8,2515.28 3945,2572.5C 3951.06,2685.09 3939.39,2795.75 3910,2904.5C 3877.52,3018.49 3823.85,3120.82 3749,3211.5C 3666.4,3311.47 3570.9,3396.3 3462.5,3466C 3330.34,3550.23 3188.67,3614.23 3037.5,3658C 2891.61,3700.22 2742.95,3727.89 2591.5,3741C 2434.13,3755.99 2276.47,3760.32 2118.5,3754C 2041,3747.91 1963.67,3740.24 1886.5,3731C 1765.19,3715.14 1646.19,3688.8 1529.5,3652C 1426.73,3619.23 1331.07,3572.56 1242.5,3512C 1194.94,3478.41 1151.11,3440.25 1111,3397.5C 1048.92,3328.4 1001.25,3250.07 968,3162.5C 928.825,3057.63 904.825,2949.3 896,2837.5C 885.302,2712.41 886.302,2587.41 899,2462.5C 899.831,2457.32 902.664,2453.82 907.5,2452C 942.548,2447.46 977.548,2442.46 1012.5,2437C 1022.81,2434.42 1029.97,2437.92 1034,2447.5C 1060.07,2550.04 1097.73,2648.04 1147,2741.5C 1194.99,2828.62 1268.15,2881.12 1366.5,2899C 1535.07,2924.55 1699.4,2908.22 1859.5,2850C 1925.95,2824.17 1984.45,2786.34 2035,2736.5C 2063.81,2704.25 2087.15,2668.25 2105,2628.5C 2130.84,2573.33 2150.5,2516 2164,2456.5C 2169.88,2427.21 2175.55,2397.87 2181,2368.5C 2190.77,2338.74 2209.27,2316.24 2236.5,2301C 2287.36,2272.83 2341.86,2257.99 2400,2256.5C 2444.41,2257.56 2486.91,2267.06 2527.5,2285C 2541.28,2292.45 2552.12,2302.95 2560,2316.5C 2577.59,2360.67 2597.59,2403.67 2620,2445.5C 2659.23,2517.07 2711.73,2577.24 2777.5,2626C 2864.38,2686.02 2960.88,2714.52 3067,2711.5C 3211.37,2710.59 3349.87,2681.76 3482.5,2625C 3519.73,2608.11 3552.23,2584.61 3580,2554.5C 3605.37,2524.11 3623.7,2489.78 3635,2451.5C 3644.21,2419.31 3651.21,2386.64 3656,2353.5C 3667.74,2269.92 3673.07,2185.92 3672,2101.5C 3673.93,2096.57 3677.43,2093.41 3682.5,2092C 3723.47,2087.67 3764.14,2082.17 3804.5,2075.5 Z"/></g>
<g><path style="opacity:1" fill="#000000" d="M 2417.5,2416.5 C 2458.04,2415.59 2498.04,2419.76 2537.5,2429C 2566.78,2436.81 2593.12,2450.14 2616.5,2469C 2651.33,2501.43 2659.17,2539.6 2640,2583.5C 2623.33,2618 2600.49,2647.83 2571.5,2673C 2548.07,2692.55 2523.07,2709.89 2496.5,2725C 2493.57,2727.26 2491.4,2730.1 2490,2733.5C 2497.75,2797.16 2505.75,2860.83 2514,2924.5C 2515.45,2928.49 2518.28,2930.99 2522.5,2932C 2614.79,2953.37 2686.29,3003.87 2737,3083.5C 2744.18,3096.03 2749.18,3109.36 2752,3123.5C 2753.91,3167.25 2733.08,3186.42 2689.5,3181C 2679.49,3178.16 2670.49,3173.5 2662.5,3167C 2643.86,3150.03 2625.53,3132.7 2607.5,3115C 2577.99,3090.21 2544.66,3072.21 2507.5,3061C 2468.53,3051.66 2432.86,3058.66 2400.5,3082C 2382.04,3095.46 2365.87,3111.29 2352,3129.5C 2337.17,3149.82 2322.84,3170.48 2309,3191.5C 2302.87,3198.64 2296.37,3205.47 2289.5,3212C 2262.06,3228.77 2237.23,3225.6 2215,3202.5C 2205.06,3188.73 2201.39,3173.4 2204,3156.5C 2207.41,3134.93 2214.41,3114.6 2225,3095.5C 2257.69,3038.48 2302.19,2992.98 2358.5,2959C 2366.71,2954.4 2375.04,2950.06 2383.5,2946C 2388.65,2940.9 2390.49,2934.73 2389,2927.5C 2381.2,2871.23 2373.87,2814.89 2367,2758.5C 2367.03,2751.03 2363.53,2746.2 2356.5,2744C 2318.72,2733.27 2282.39,2718.94 2247.5,2701C 2216.8,2684.64 2190.63,2662.8 2169,2635.5C 2136.23,2583.61 2142.73,2537.11 2188.5,2496C 2227.14,2466.76 2270.14,2446.09 2317.5,2434C 2350.51,2425.55 2383.84,2419.71 2417.5,2416.5 Z"/></g>
<g><path style="opacity:1" fill="#000000" d="M 3380.5,2802.5 C 3424.5,2802.33 3468.5,2802.5 3512.5,2803C 3533.85,2803.13 3554.85,2805.79 3575.5,2811C 3593,2818.16 3599.83,2830.99 3596,2849.5C 3590.16,2863.31 3579.66,2871.14 3564.5,2873C 3538.54,2876.33 3512.54,2879.33 3486.5,2882C 3460.16,2882.97 3433.83,2883.97 3407.5,2885C 3363.86,2888.33 3320.19,2891.33 3276.5,2894C 3263.96,2895.25 3251.63,2894.25 3239.5,2891C 3218.31,2880.77 3211.14,2864.27 3218,2841.5C 3224.19,2830.64 3233.36,2823.47 3245.5,2820C 3265.9,2814.87 3286.56,2811.2 3307.5,2809C 3331.95,2806.44 3356.29,2804.27 3380.5,2802.5 Z"/></g>
<g><path style="opacity:1" fill="#000000" d="M 3292.5,2992.5 C 3318.02,2991.75 3343.35,2993.58 3368.5,2998C 3411.17,3004.67 3453.83,3011.33 3496.5,3018C 3521.19,3022.59 3545.52,3028.59 3569.5,3036C 3587.01,3043.86 3595.18,3057.36 3594,3076.5C 3589.94,3091.56 3580.11,3099.72 3564.5,3101C 3552.17,3101.67 3539.83,3101.67 3527.5,3101C 3496.72,3098.32 3466.05,3094.65 3435.5,3090C 3384.51,3081.56 3333.51,3073.22 3282.5,3065C 3257.45,3055.84 3249.28,3038.67 3258,3013.5C 3266.52,3001.5 3278.02,2994.5 3292.5,2992.5 Z"/></g>
<g><path style="opacity:1" fill="#000000" d="M 1568.5,3032.5 C 1582.34,3031.81 1596.01,3032.98 1609.5,3036C 1631.38,3044.92 1638.88,3060.76 1632,3083.5C 1626.52,3093.16 1618.35,3099.33 1607.5,3102C 1520.88,3117.95 1434.21,3133.61 1347.5,3149C 1330.62,3152.07 1313.62,3153.07 1296.5,3152C 1272.72,3147.59 1262.22,3133.42 1265,3109.5C 1268.64,3100.19 1274.8,3093.03 1283.5,3088C 1303.75,3078.15 1324.92,3070.98 1347,3066.5C 1399.31,3056.31 1451.81,3047.14 1504.5,3039C 1525.94,3036.36 1547.27,3034.19 1568.5,3032.5 Z"/></g>
<g><path style="opacity:1" fill="#000000" d="M 1609.5,3185.5 C 1624.21,3183.79 1636.71,3188.13 1647,3198.5C 1654.42,3210.28 1655.42,3222.61 1650,3235.5C 1646.83,3240 1643,3243.83 1638.5,3247C 1583.33,3275.42 1527.66,3303.09 1471.5,3330C 1448.49,3340.78 1425.16,3350.78 1401.5,3360C 1387.24,3365.41 1372.9,3365.74 1358.5,3361C 1336.34,3342.13 1336.01,3322.8 1357.5,3303C 1399.38,3274.05 1444.05,3249.72 1491.5,3230C 1521.94,3216.78 1552.6,3204.11 1583.5,3192C 1592.13,3189.18 1600.8,3187.01 1609.5,3185.5 Z"/></g>
</svg>
